# xmcd CD database file
#
# Track frame offsets:
#	150
#	16154
#	32475
#	44983
#	55240
#	70458
#	83619
#	96532
#	108408
#	124047
#	135028
#	146661
#	158220
#	173348
#	189140
#	202071
#	212417
#	225112
#	235512
#	246913
#	264360
#	277469
#
# Disc length: 3964 seconds
#
# Revision: 2
# Processed by: cddbd v1.5.2PL0 Copyright (c) Steve Scherf et al.
# Submitted via: CDex 1.94
#
DISCID=2a0f7a16
DTITLE=James Brown - The Singles # 5..1 1967-1969
DYEAR=1967
DGENRE=Soul
TTITLE0=I Can't Stand Myself (When You Touch Me)
TTITLE1=There Was A Time
TTITLE2=The Soul Of J.B.
TTITLE3=Funky Soul #1
TTITLE4=You've Got To Change Your Mind
TTITLE5=Bringing Up The Guitar
TTITLE6=Gittin' A Little Hipper
TTITLE7=I Got The Feelin'
TTITLE8=If I Ruled The World
TTITLE9=You've Got The Power
TTITLE10=Shhh (For A Little While)
TTITLE11=Here I Go
TTITLE12=America Is My Home - Pt. 1
TTITLE13=America Is My Home - Pt. 2
TTITLE14=Licking Stick - Licking Stick - Pt. 1
TTITLE15=Licking Stick - Licking Stick - Pt. 2
TTITLE16=Licking Stick - Licking Stick - Pt. 1 (stereo)
TTITLE17=Licking Stick - Licking Stick - Pt. 2 (stereo)
TTITLE18=There Was A Time
TTITLE19=I Guess I'll Have To Cry, Cry, Cry
TTITLE20=Just Plain Funk
TTITLE21=I Guess I'll Have To Cry, Cry, Cry (alternate take)
EXTD=YEAR: 1967
EXTT0=
EXTT1=
EXTT2=
EXTT3=
EXTT4=
EXTT5=
EXTT6=
EXTT7=
EXTT8=
EXTT9=
EXTT10=
EXTT11=
EXTT12=
EXTT13=
EXTT14=
EXTT15=
EXTT16=
EXTT17=
EXTT18=
EXTT19=
EXTT20=
EXTT21=
PLAYORDER=
